<?xml version="1.0" ?><svg data-name="Layer 3" id="Layer_3" viewBox="0 0 2050 2050" xmlns="http://www.w3.org/2000/svg"><defs><style>.cls-1{fill:#4d4d4d;}</style></defs><title/><path class="cls-1" d="M1600.8,827.6,1091.4,500.8a123.2,123.2,0,0,0-132.8,0L449.2,827.6a45,45,0,0,0,48.6,75.7l40.5-26v597.9a120.5,120.5,0,0,0,120.4,120.4H851.2a34.4,34.4,0,0,0,34.4-34.4V1409.8A139.4,139.4,0,0,1,1025,1270.4h0a139.4,139.4,0,0,1,139.4,139.4v151.4a34.4,34.4,0,0,0,34.4,34.4h192.5a120.5,120.5,0,0,0,120.4-120.4V877.3l40.5,26a45,45,0,0,0,48.6-75.7Z"/></svg>