<?xml version="1.0" ?><svg data-name="Layer 3" id="Layer_3" viewBox="0 0 2050 2050" xmlns="http://www.w3.org/2000/svg"><defs><style>.cls-1{fill:#4d4d4d;}.cls-2{fill:#fff;}</style></defs><title/><path class="cls-1" d="M1025,1644.9A620,620,0,0,1,783.7,453.8a620.1,620.1,0,0,1,482.6,1142.4A614.6,614.6,0,0,1,1025,1644.9Z"/><path class="cls-2" d="M915.1,1408.5c-102.6,0-186-83.4-186-186s83.4-186,186-186,186,83.4,186,186S1017.6,1408.5,915.1,1408.5Zm0-282a96,96,0,1,0,96,96A96.1,96.1,0,0,0,915.1,1126.5Z"/><path class="cls-2" d="M1056.1,1267.5a44.9,44.9,0,0,1-45-45V709.6a64,64,0,0,1,63.9-63.9h48.2a94.5,94.5,0,0,1,85,52.4c17.3,34.8,41.3,35.6,60.3,32.5a45,45,0,0,1,14.8,88.8c-39.1,6.5-75.4-.8-105-21.1-20.9-14.4-38-34.6-50.7-60a4.9,4.9,0,0,0-4.4-2.6h-22.1v486.8A45,45,0,0,1,1056.1,1267.5Z"/></svg>