<?xml version="1.0" ?><svg data-name="Layer 3" id="Layer_3" viewBox="0 0 2050 2050" xmlns="http://www.w3.org/2000/svg"><defs><style>.cls-1{fill:#4d4d4d;}</style></defs><title/><path class="cls-1" d="M1449.5,1608.3h-849a111.6,111.6,0,0,1-2.5-223.2V1035.4a427,427,0,1,1,854,0v349.7a111.6,111.6,0,0,1-2.5,223.2Z"/><path class="cls-1" d="M1134.9,708.4a45,45,0,0,1-45-45V598a64.9,64.9,0,0,0-129.8,0v60.3a45,45,0,0,1-90,0V598c0-85.4,69.5-154.9,154.9-154.9s154.9,69.5,154.9,154.9v65.4A44.9,44.9,0,0,1,1134.9,708.4Z"/></svg>